# xmcd
#
# Track frame offsets:
#	150
#	14089
#	29704
#	43242
#	62295
#	74694
#	88734
#	109769
#	127180
#	142840
#	158112
#	170727
#	184736
#	203619
#	215397
#	224053
#
# Disc length: 3034 seconds
#
# Revision: 6
# Processed by: cddbd v1.5.2PL0 Copyright (c) Steve Scherf et al.
# Submitted via: EasyCDDAExtractor 12.0.0.1
#
DISCID=fb0bd810
DTITLE=Various Artist - Ultimate Cheese Party CD3
DYEAR=2003
DGENRE=Pop
TTITLE0=DJ Otzi - Hey Baby
TTITLE1=Las Ketchup - Asereje (The Ketchup Song)
TTITLE2=The Cheeky Girls - Hooray Hooray (It's a Cheeky Holiday)
TTITLE3=Jive Bunny - Let's Party
TTITLE4=Los Lobos - La Bamba
TTITLE5=The Fast Food Rockers - The Fast Food Song
TTITLE6=Eifell 65 - Blue
TTITLE7=Scooter - The Logical Song
TTITLE8=Corona - Rhythm of the Night
TTITLE9=Holly Valance - Kiss Kiss
TTITLE10=Bad Manners - Can Can
TTITLE11=Black Lace - Agadoo
TTITLE12=Los Del Rio - Macarena
TTITLE13=Bucks Fizz - Making Your Mind Up
TTITLE14=Johnny Burnette - You're Sixteen, You're Beautiful (And You're Mine)
TTITLE15=Auld Lang Syne - Traditional
EXTD=YEAR: 2003
EXTT0=
EXTT1=
EXTT2=
EXTT3=
EXTT4=
EXTT5=
EXTT6=
EXTT7=
EXTT8=
EXTT9=
EXTT10=
EXTT11=
EXTT12=
EXTT13=
EXTT14=
EXTT15=
PLAYORDER=
